<svg width="44" height="33" viewBox="0 0 44 33" fill="none" xmlns="http://www.w3.org/2000/svg">
<path d="M31.7778 0.935059H36.6667C40.7104 0.935059 44 3.99527 44 7.75709V12.3051C44 16.0669 40.7104 19.1271 36.6667 19.1271H31.7778C30.9929 19.1271 30.2508 18.9818 29.5413 18.7681C30.5269 24.124 35.5192 28.2232 41.5556 28.2232C42.9067 28.2232 44 29.2403 44 30.4972C44 31.7541 42.9067 32.7712 41.5556 32.7712C32.1215 32.7712 24.4444 25.6294 24.4444 16.8531V7.75709C24.4444 3.99527 27.734 0.935059 31.7778 0.935059ZM7.33334 0.935059H12.2222C16.266 0.935059 19.5556 3.99527 19.5556 7.75709V12.3051C19.5556 16.0669 16.266 19.1271 12.2222 19.1271H7.33334C6.5485 19.1271 5.80637 18.9818 5.09683 18.7681C6.08243 24.124 11.0748 28.2232 17.1111 28.2232C18.4622 28.2232 19.5556 29.2403 19.5556 30.4972C19.5556 31.7541 18.4622 32.7712 17.1111 32.7712C7.67702 32.7712 0 25.6294 0 16.8531V7.75709C0 3.99527 3.28957 0.935059 7.33334 0.935059Z" fill="#20B486"/>
<path d="M29.0495 18.8586L28.9013 18.0533L29.6854 18.2894C30.3631 18.4934 31.0552 18.6271 31.7778 18.6271H36.6667C40.4689 18.6271 43.5 15.7574 43.5 12.3051V7.75709C43.5 4.30483 40.4689 1.43506 36.6667 1.43506H31.7778C27.9755 1.43506 24.9444 4.30483 24.9444 7.75709V16.8531C24.9444 25.3199 32.363 32.2712 41.5556 32.2712C42.6652 32.2712 43.5 31.4445 43.5 30.4972C43.5 29.5498 42.6652 28.7232 41.5556 28.7232C35.2969 28.7232 30.0821 24.4699 29.0495 18.8586ZM4.60509 18.8586L4.45689 18.0533L5.24097 18.2894C5.91866 18.4934 6.61077 18.6271 7.33334 18.6271H12.2222C16.0245 18.6271 19.0556 15.7574 19.0556 12.3051V7.75709C19.0556 4.30483 16.0245 1.43506 12.2222 1.43506H7.33334C3.53107 1.43506 0.5 4.30483 0.5 7.75709V16.8531C0.5 25.3199 7.91852 32.2712 17.1111 32.2712C18.2207 32.2712 19.0556 31.4445 19.0556 30.4972C19.0556 29.5498 18.2207 28.7232 17.1111 28.7232C10.8525 28.7232 5.63768 24.4699 4.60509 18.8586Z" stroke="#09121D" stroke-opacity="0.1"/>
</svg>
