<svg width="44" height="33" viewBox="0 0 44 33" fill="none" xmlns="http://www.w3.org/2000/svg">
<path d="M12.2222 0.935059H7.33333C3.28957 0.935059 0 3.99527 0 7.75709V12.3051C0 16.0669 3.28957 19.1271 7.33333 19.1271H12.2222C13.0071 19.1271 13.7492 18.9818 14.4587 18.7681C13.4731 24.124 8.48075 28.2232 2.44444 28.2232C1.09332 28.2232 0 29.2403 0 30.4972C0 31.7541 1.09332 32.7712 2.44444 32.7712C11.8785 32.7712 19.5556 25.6294 19.5556 16.8531V7.75709C19.5556 3.99527 16.266 0.935059 12.2222 0.935059ZM36.6667 0.935059H31.7778C27.734 0.935059 24.4444 3.99527 24.4444 7.75709V12.3051C24.4444 16.0669 27.734 19.1271 31.7778 19.1271H36.6667C37.4515 19.1271 38.1936 18.9818 38.9032 18.7681C37.9176 24.124 32.9252 28.2232 26.8889 28.2232C25.5378 28.2232 24.4444 29.2403 24.4444 30.4972C24.4444 31.7541 25.5378 32.7712 26.8889 32.7712C36.323 32.7712 44 25.6294 44 16.8531V7.75709C44 3.99527 40.7104 0.935059 36.6667 0.935059Z" fill="#20B486"/>
<path d="M14.9505 18.8586L15.0987 18.0533L14.3146 18.2894C13.6369 18.4934 12.9448 18.6271 12.2222 18.6271H7.33333C3.53107 18.6271 0.5 15.7574 0.5 12.3051V7.75709C0.5 4.30483 3.53107 1.43506 7.33333 1.43506H12.2222C16.0245 1.43506 19.0556 4.30483 19.0556 7.75709V16.8531C19.0556 25.3199 11.637 32.2712 2.44444 32.2712C1.33481 32.2712 0.5 31.4445 0.5 30.4972C0.5 29.5498 1.33481 28.7232 2.44444 28.7232C8.7031 28.7232 13.9179 24.4699 14.9505 18.8586ZM39.3949 18.8586L39.5431 18.0533L38.759 18.2894C38.0813 18.4934 37.3892 18.6271 36.6667 18.6271H31.7778C27.9755 18.6271 24.9444 15.7574 24.9444 12.3051V7.75709C24.9444 4.30483 27.9755 1.43506 31.7778 1.43506H36.6667C40.4689 1.43506 43.5 4.30483 43.5 7.75709V16.8531C43.5 25.3199 36.0815 32.2712 26.8889 32.2712C25.7793 32.2712 24.9444 31.4445 24.9444 30.4972C24.9444 29.5498 25.7793 28.7232 26.8889 28.7232C33.1475 28.7232 38.3623 24.4699 39.3949 18.8586Z" stroke="#09121D" stroke-opacity="0.1"/>
</svg>
